<svg xmlns="http://www.w3.org/2000/svg" viewBox="0 0 50 50" enable-background="new 0 0 50 50"><path fill="#aaa" d="M25 10.8C14.4 10.8 5.2 17 .7 26 5.2 35 14.4 41.2 25 41.2c10.6 0 19.8-6.2 24.3-15.2-4.5-9-13.7-15.2-24.3-15.2zm12 8.1c2.9 1.8 5.3 4.3 7.1 7.1-1.8 2.9-4.2 5.3-7.1 7.1-3.6 2.3-7.7 3.5-12 3.5s-8.4-1.2-12-3.5c-2.9-1.8-5.3-4.3-7.1-7.1 1.8-2.9 4.2-5.3 7.1-7.1l.6-.3c-.5 1.3-.7 2.7-.7 4.2 0 6.7 5.5 12.2 12.2 12.2 6.7 0 12.2-5.5 12.2-12.2 0-1.5-.3-2.9-.7-4.2 0 0 .2.1.4.3zm-12 2.2c0 2.5-2 4.6-4.6 4.6s-4.6-2-4.6-4.6 2-4.6 4.6-4.6 4.6 2.1 4.6 4.6z"/></svg>