<?xml version="1.0" encoding="UTF-8"?><!DOCTYPE svg PUBLIC "-//W3C//DTD SVG 1.1//EN" "http://www.w3.org/Graphics/SVG/1.1/DTD/svg11.dtd"><svg xmlns="http://www.w3.org/2000/svg"><symbol id="close" viewBox="0 0 612 612">
<g>
	<g id="Error">
		<g>
			<path d="M420.501,218.79c-0.286-6.942-2.868-13.827-8.186-19.125c-5.297-5.298-12.183-7.898-19.125-8.186
				c-7.726-0.325-15.548,2.276-21.438,8.186L306,265.436l-65.752-65.771c-5.909-5.91-13.712-8.492-21.439-8.186
				c-6.942,0.287-13.827,2.869-19.125,8.186c-5.297,5.298-7.898,12.183-8.186,19.125c-0.325,7.727,2.276,15.529,8.186,21.439
				L265.436,306l-65.752,65.752c-5.91,5.909-8.492,13.713-8.186,21.438c0.287,6.942,2.869,13.828,8.186,19.125
				c5.298,5.298,12.183,7.899,19.125,8.186c7.727,0.325,15.53-2.275,21.439-8.186L306,346.564l65.771,65.771
				c5.91,5.909,13.713,8.491,21.439,8.186c6.942-0.287,13.827-2.869,19.125-8.186c5.298-5.298,7.898-12.183,8.186-19.125
				c0.325-7.727-2.276-15.529-8.186-21.439L346.564,306l65.751-65.752C418.226,234.339,420.826,226.536,420.501,218.79z M306,0
				C137.012,0,0,137.012,0,306s137.012,306,306,306s306-137.012,306-306S474.988,0,306,0z M306,554.625
				C168.912,554.625,57.375,443.088,57.375,306S168.912,57.375,306,57.375S554.625,168.912,554.625,306S443.088,554.625,306,554.625
				z"/>
		</g>
	</g>
</g>
</symbol><symbol id="facebook" viewBox="0 0 96.124 96.123">
<g>
	<path d="M72.089,0.02L59.624,0C45.62,0,36.57,9.285,36.57,23.656v10.907H24.037c-1.083,0-1.96,0.878-1.96,1.961v15.803
		c0,1.083,0.878,1.96,1.96,1.96h12.533v39.876c0,1.083,0.877,1.96,1.96,1.96h16.352c1.083,0,1.96-0.878,1.96-1.96V54.287h14.654
		c1.083,0,1.96-0.877,1.96-1.96l0.006-15.803c0-0.52-0.207-1.018-0.574-1.386c-0.367-0.368-0.867-0.575-1.387-0.575H56.842v-9.246
		c0-4.444,1.059-6.7,6.848-6.7l8.397-0.003c1.082,0,1.959-0.878,1.959-1.96V1.98C74.046,0.899,73.17,0.022,72.089,0.02z"/>
</g>

</symbol><symbol id="twitter" viewBox="0 0 612 612">
<g>
	<g>
		<path d="M612,116.258c-22.525,9.981-46.694,16.75-72.088,19.772c25.929-15.527,45.777-40.155,55.184-69.411
			c-24.322,14.379-51.169,24.82-79.775,30.48c-22.907-24.437-55.49-39.658-91.63-39.658c-69.334,0-125.551,56.217-125.551,125.513
			c0,9.828,1.109,19.427,3.251,28.606C197.065,206.32,104.556,156.337,42.641,80.386c-10.823,18.51-16.98,40.078-16.98,63.101
			c0,43.559,22.181,81.993,55.835,104.479c-20.575-0.688-39.926-6.348-56.867-15.756v1.568c0,60.806,43.291,111.554,100.693,123.104
			c-10.517,2.83-21.607,4.398-33.08,4.398c-8.107,0-15.947-0.803-23.634-2.333c15.985,49.907,62.336,86.199,117.253,87.194
			c-42.947,33.654-97.099,53.655-155.916,53.655c-10.134,0-20.116-0.612-29.944-1.721c55.567,35.681,121.536,56.485,192.438,56.485
			c230.948,0,357.188-191.291,357.188-357.188l-0.421-16.253C573.872,163.526,595.211,141.422,612,116.258z"/>
	</g>
</g>

</symbol></svg>