<?xml version="1.0" encoding="UTF-8"?><!DOCTYPE svg PUBLIC "-//W3C//DTD SVG 1.1//EN" "http://www.w3.org/Graphics/SVG/1.1/DTD/svg11.dtd"><svg xmlns="http://www.w3.org/2000/svg"><symbol id="close" viewBox="0 0 612 612">
<g>
	<g id="Error">
		<g>
			<path d="M420.501,218.79c-0.286-6.942-2.868-13.827-8.186-19.125c-5.297-5.298-12.183-7.898-19.125-8.186
				c-7.726-0.325-15.548,2.276-21.438,8.186L306,265.436l-65.752-65.771c-5.909-5.91-13.712-8.492-21.439-8.186
				c-6.942,0.287-13.827,2.869-19.125,8.186c-5.297,5.298-7.898,12.183-8.186,19.125c-0.325,7.727,2.276,15.529,8.186,21.439
				L265.436,306l-65.752,65.752c-5.91,5.909-8.492,13.713-8.186,21.438c0.287,6.942,2.869,13.828,8.186,19.125
				c5.298,5.298,12.183,7.899,19.125,8.186c7.727,0.325,15.53-2.275,21.439-8.186L306,346.564l65.771,65.771
				c5.91,5.909,13.713,8.491,21.439,8.186c6.942-0.287,13.827-2.869,19.125-8.186c5.298-5.298,7.898-12.183,8.186-19.125
				c0.325-7.727-2.276-15.529-8.186-21.439L346.564,306l65.751-65.752C418.226,234.339,420.826,226.536,420.501,218.79z M306,0
				C137.012,0,0,137.012,0,306s137.012,306,306,306s306-137.012,306-306S474.988,0,306,0z M306,554.625
				C168.912,554.625,57.375,443.088,57.375,306S168.912,57.375,306,57.375S554.625,168.912,554.625,306S443.088,554.625,306,554.625
				z"/>
		</g>
	</g>
</g>
</symbol><symbol id="facebook" viewBox="0 0 96.124 96.123">
<g>
	<path d="M72.089,0.02L59.624,0C45.62,0,36.57,9.285,36.57,23.656v10.907H24.037c-1.083,0-1.96,0.878-1.96,1.961v15.803
		c0,1.083,0.878,1.96,1.96,1.96h12.533v39.876c0,1.083,0.877,1.96,1.96,1.96h16.352c1.083,0,1.96-0.878,1.96-1.96V54.287h14.654
		c1.083,0,1.96-0.877,1.96-1.96l0.006-15.803c0-0.52-0.207-1.018-0.574-1.386c-0.367-0.368-0.867-0.575-1.387-0.575H56.842v-9.246
		c0-4.444,1.059-6.7,6.848-6.7l8.397-0.003c1.082,0,1.959-0.878,1.959-1.96V1.98C74.046,0.899,73.17,0.022,72.089,0.02z"/>
</g>

</symbol><symbol id="basket" viewBox="0 0 303.124 303.124">
<path d="M290.245,85.686c-1.136-1.469-2.889-2.33-4.747-2.33h-67.717L163.252,2.642c-1.855-2.746-5.585-3.468-8.331-1.613
	c-2.746,1.855-3.468,5.584-1.613,8.33l49.991,73.997H87.169l49.99-73.997c1.855-2.746,1.133-6.475-1.613-8.33
	c-2.746-1.855-6.476-1.134-8.331,1.613L72.687,83.356H6c-1.857,0-3.61,0.86-4.747,2.33c-1.136,1.469-1.528,3.382-1.06,5.18
	l41.773,160.635c0.688,2.644,3.075,4.49,5.807,4.49h195.953c2.732,0,5.119-1.846,5.807-4.49l41.772-160.635
	C291.772,89.069,291.381,87.156,290.245,85.686z M253.011,190.445h-59.857v-41.546h70.661L253.011,190.445z M181.153,190.445h-70.81
	v-41.546h70.81V190.445z M181.153,202.445v41.546h-70.81v-41.546H181.153z M27.684,148.899h70.66v41.546H38.487L27.684,148.899z
	 M110.344,136.899V95.356h70.81v41.543H110.344z M75.862,95.356c0.002,0,0.004,0,0.007,0c0.003,0,0.005,0,0.008,0h22.466v41.543
	H24.563L13.76,95.356H75.862z M41.608,202.445h56.735v41.546H52.412L41.608,202.445z M239.086,243.991h-45.933v-41.546h56.737
	L239.086,243.991z M266.935,136.899h-73.782V95.356h21.438c0.003,0,0.005,0,0.008,0c0.002,0,0.004,0,0.007,0h63.132L266.935,136.899
	z"/>
</symbol>
<symbol id="twitter" viewBox="0 0 612 612">
<g>
	<g>
		<path d="M612,116.258c-22.525,9.981-46.694,16.75-72.088,19.772c25.929-15.527,45.777-40.155,55.184-69.411
			c-24.322,14.379-51.169,24.82-79.775,30.48c-22.907-24.437-55.49-39.658-91.63-39.658c-69.334,0-125.551,56.217-125.551,125.513
			c0,9.828,1.109,19.427,3.251,28.606C197.065,206.32,104.556,156.337,42.641,80.386c-10.823,18.51-16.98,40.078-16.98,63.101
			c0,43.559,22.181,81.993,55.835,104.479c-20.575-0.688-39.926-6.348-56.867-15.756v1.568c0,60.806,43.291,111.554,100.693,123.104
			c-10.517,2.83-21.607,4.398-33.08,4.398c-8.107,0-15.947-0.803-23.634-2.333c15.985,49.907,62.336,86.199,117.253,87.194
			c-42.947,33.654-97.099,53.655-155.916,53.655c-10.134,0-20.116-0.612-29.944-1.721c55.567,35.681,121.536,56.485,192.438,56.485
			c230.948,0,357.188-191.291,357.188-357.188l-0.421-16.253C573.872,163.526,595.211,141.422,612,116.258z"/>
	</g>
</g>

</symbol></svg>